# xmcd CD database file
#
# Track frame offsets:
#	150
#	23549
#	42949
#	64630
#	93476
#	110469
#	142225
#	163896
#	179098
#	205620
#
# Disc length: 3092 seconds
#
# Revision: 0
# Processed by: cddbd v1.5.2PL0 Copyright (c) Steve Scherf et al.
# Submitted via: CDex 1.70beta2
#
DISCID=8b0c120a
DTITLE=Don Latarski and Rue de Blues - Eden Hall Sessions
DYEAR=2001
DGENRE=Blues
TTITLE0=Enigma Blues Standard
TTITLE1=Almost Home
TTITLE2=Unfinished Business
TTITLE3=Rainy Day Blues
TTITLE4=Zha, Zha Gabong
TTITLE5=Never Trouble Trouble
TTITLE6=T-Bone Stroll
TTITLE7=Potter's Fix
TTITLE8=Nonpareil Blues
TTITLE9=Do You Know the Blues?
EXTD=YEAR: 2001
EXTT0=
EXTT1=
EXTT2=
EXTT3=
EXTT4=
EXTT5=
EXTT6=
EXTT7=
EXTT8=
EXTT9=
PLAYORDER=
